<svg viewBox="0 0 60 900" fill="none" xmlns="http://www.w3.org/2000/svg">
    <path d="M2.76072 899.913C13.0511 879.117 39.9244 865.316 42.3923 830.589C45.6396 784.812 1.8659 767.506 12.0841 726.581C18.723 699.978 39.7079 697.327 40.2274 671.26C40.7614 644.701 19.1705 636.605 22.9085 613.724C26.7764 589.974 51.759 588.004 53.2167 567.252C54.8043 544.747 26.0114 538.65 20.7436 511.931C14.7252 481.389 48.8003 471.339 55.3816 434.483C66.1482 374.253 -12.913 334.37 3.42461 288.434C12.8057 262.048 41.9016 266.784 48.8869 239.746C58.4268 202.861 7.52344 181.573 12.0841 137.954C16.284 97.7232 62.3957 89.0196 59.7257 56.0735C57.4598 28.4133 23.8466 21.3027 11.7955 0.0869141" stroke="#041185" stroke-width="0.25px" stroke-miterlimit="10"/>
</svg>